<svg width="24" height="24" viewBox="0 0 24 24" fill="none" xmlns="http://www.w3.org/2000/svg">
<path opacity="0.9" d="M20.83 8.00999L14.28 2.76999C13 1.74999 11 1.73999 9.72996 2.75999L3.17996 8.00999C2.23996 8.75999 1.66996 10.26 1.86996 11.44L3.12996 18.98C3.41996 20.67 4.98996 22 6.69996 22H17.3C18.99 22 20.59 20.64 20.88 18.97L22.14 11.43C22.32 10.26 21.75 8.75999 20.83 8.00999Z" fill="#01A74B"/>
<path d="M12 19C10.9067 19 10 18.6222 10 18.1667V14.8333C10 14.3778 10.9067 14 12 14C13.0933 14 14 14.3778 14 14.8333V18.1667C14 18.6222 13.0933 19 12 19Z" fill="white"/>
</svg>
