<svg width="139" height="36" viewBox="0 0 139 36" fill="none" xmlns="http://www.w3.org/2000/svg">
<path d="M30.6187 5.4129L24.294 11.3389C19.6338 7.51993 15.0289 8.86973 13.309 10.022C11.2007 11.3389 7.5169 15.2896 9.64731 20.5571C11.7777 25.8247 16.1939 26.7026 18.1357 26.4831V17.7587L26.624 26.4831V35.2075C10.1466 37.0182 7.31916 31.9818 5.32237 30.5983C1.99531 28.2932 -5.64978 11.8401 7.8166 3.10835C17.9715 -3.47615 27.6783 2.01094 30.6187 5.4129Z" fill="url(#paint0_linear_7_3757)"/>
<path d="M30.5926 5.45419C24.6009 4.92744 16.5008 8.25258 13.4495 9.89869C17.6104 7.75875 22.4372 9.56947 24.268 11.3802L30.5926 5.45419Z" fill="url(#paint1_linear_7_3757)"/>
<path d="M10.5178 1.69451C8.25419 7.09375 8.4541 14.8374 8.95342 18.1296C8.42094 6.93604 27.4281 5.4545 30.5904 5.4545C23.5999 -1.95296 14.1129 -0.306842 10.5178 1.69451Z" fill="url(#paint2_linear_7_3757)"/>
<path d="M10.4539 1.66873C7.29158 13.5207 7.7909 21.2574 13.6163 25.5373C10.6204 25.5373 2.40933 15.7704 0.634033 12.6977C2.29842 6.11323 7.90188 2.60153 10.4539 1.66873Z" fill="url(#paint3_linear_7_3757)"/>
<path d="M18.109 26.3603C12.2837 26.6896 6.12442 20.1051 0.632282 12.6976C-1.09868 17.4384 1.13126 24.1655 2.46277 26.6896C8.85402 29.455 15.6125 27.5126 18.109 26.3603Z" fill="url(#paint4_linear_7_3757)"/>
<path d="M24.5997 27.0186C22.7732 31.2766 17.4952 32.827 14.9345 33.0943C14.8459 33.1035 14.7798 33.1775 14.7798 33.2666C14.7798 33.3615 14.8567 33.4384 14.9516 33.4384H22.5997C23.7042 33.4384 24.5997 32.543 24.5997 31.4384V27.0186Z" fill="url(#paint5_linear_7_3757)"/>
<path d="M35.2263 28.5956H31.2717L37.2973 11.1411H42.053L48.07 28.5956H44.1155L39.7433 15.1297H39.6069L35.2263 28.5956ZM34.9791 21.7348H44.32V24.6155H34.9791V21.7348ZM50.1709 11.1411H54.722L59.5288 22.8684H59.7334L64.5402 11.1411H69.0913V28.5956H65.5118V17.2348H65.3669L60.8498 28.5104H58.4123L53.8953 17.1922H53.7504V28.5956H50.1709V11.1411ZM72.1318 28.5956V11.1411H83.8932V14.1837H75.8221V18.3428H83.288V21.3854H75.8221V25.553H83.9272V28.5956H72.1318ZM86.8271 28.5956V11.1411H90.5174V18.3428H98.0089V11.1411H101.691V28.5956H98.0089V21.3854H90.5174V28.5956H86.8271ZM120.773 19.8684C120.773 21.7718 120.412 23.3911 119.691 24.7263C118.975 26.0616 117.998 27.0814 116.759 27.786C115.526 28.4848 114.14 28.8343 112.6 28.8343C111.049 28.8343 109.657 28.482 108.424 27.7775C107.191 27.0729 106.216 26.053 105.5 24.7178C104.784 23.3826 104.427 21.7661 104.427 19.8684C104.427 17.965 104.784 16.3456 105.5 15.0104C106.216 13.6752 107.191 12.6581 108.424 11.9593C109.657 11.2547 111.049 10.9025 112.6 10.9025C114.14 10.9025 115.526 11.2547 116.759 11.9593C117.998 12.6581 118.975 13.6752 119.691 15.0104C120.412 16.3456 120.773 17.965 120.773 19.8684ZM117.032 19.8684C117.032 18.6354 116.847 17.5956 116.478 16.7491C116.114 15.9025 115.6 15.2604 114.935 14.8229C114.27 14.3854 113.492 14.1667 112.6 14.1667C111.708 14.1667 110.929 14.3854 110.265 14.8229C109.6 15.2604 109.083 15.9025 108.713 16.7491C108.35 17.5956 108.168 18.6354 108.168 19.8684C108.168 21.1013 108.35 22.1411 108.713 22.9877C109.083 23.8343 109.6 24.4763 110.265 24.9138C110.929 25.3513 111.708 25.5701 112.6 25.5701C113.492 25.5701 114.27 25.3513 114.935 24.9138C115.6 24.4763 116.114 23.8343 116.478 22.9877C116.847 22.1411 117.032 21.1013 117.032 19.8684ZM123.507 28.5956V11.1411H127.197V18.8371H127.427L133.708 11.1411H138.132L131.655 18.9564L138.208 28.5956H133.794L129.012 21.4195L127.197 23.6354V28.5956H123.507Z" fill="white"/>
<defs>
<linearGradient id="paint0_linear_7_3757" x1="2.88793" y1="33.1412" x2="27.4995" y2="29.8865" gradientUnits="userSpaceOnUse">
<stop stop-color="#A8FFCF"/>
<stop offset="0.7181" stop-color="#21D772"/>
</linearGradient>
<linearGradient id="paint1_linear_7_3757" x1="28.2625" y1="5.28959" x2="22.0891" y2="11.4484" gradientUnits="userSpaceOnUse">
<stop stop-color="#52B27D"/>
<stop offset="1" stop-color="#58D18E"/>
</linearGradient>
<linearGradient id="paint2_linear_7_3757" x1="22.435" y1="0.516218" x2="18.5211" y2="14.202" gradientUnits="userSpaceOnUse">
<stop stop-color="#A8FFCF"/>
<stop offset="0.369818" stop-color="#21D772"/>
</linearGradient>
<linearGradient id="paint3_linear_7_3757" x1="9.00915" y1="3.23354" x2="2.07548" y2="18.5902" gradientUnits="userSpaceOnUse">
<stop offset="0.23156" stop-color="#A8FFCF"/>
<stop offset="0.758626" stop-color="#21D772"/>
</linearGradient>
<linearGradient id="paint4_linear_7_3757" x1="8.77612" y1="18.5917" x2="8.02689" y2="24.7396" gradientUnits="userSpaceOnUse">
<stop stop-color="#A8FFCF"/>
<stop offset="0.975496" stop-color="#21D772"/>
</linearGradient>
<linearGradient id="paint5_linear_7_3757" x1="20.9526" y1="27.2014" x2="18.1682" y2="33.6237" gradientUnits="userSpaceOnUse">
<stop stop-color="#A8FFCF"/>
<stop offset="1" stop-color="#21D772"/>
</linearGradient>
</defs>
</svg>
