<svg width="16" height="16" viewBox="0 0 16 16" fill="none" xmlns="http://www.w3.org/2000/svg">
<path d="M7.97891 14.0109C11.2969 14.0109 13.9867 11.3211 13.9867 8.00314C13.9867 4.68514 11.2969 1.99536 7.97891 1.99536C4.6609 1.99536 1.97113 4.68514 1.97113 8.00314C1.97113 11.3211 4.6609 14.0109 7.97891 14.0109Z" fill="#FCEA2B"/>
<path d="M8.00134 12.8684C10.6856 12.8684 12.8616 10.6924 12.8616 8.00817C12.8616 5.32394 10.6856 3.14795 8.00134 3.14795C5.31711 3.14795 3.14111 5.32394 3.14111 8.00817C3.14111 10.6924 5.31711 12.8684 8.00134 12.8684Z" fill="white"/>
<path d="M12.2467 5.63999C12.8197 6.66733 13.0005 7.86769 12.7556 9.01825C12.5107 10.1688 11.8566 11.1914 10.9148 11.8963C9.97307 12.6012 8.80754 12.9404 7.63459 12.8511C6.46164 12.7617 5.36095 12.2498 4.53682 11.4104C3.71269 10.571 3.2211 9.4611 3.15329 8.28671C3.08548 7.11232 3.44606 5.95322 4.1681 5.02454C4.89014 4.09586 5.92459 3.46069 7.07946 3.23692C8.23433 3.01315 9.43116 3.21598 10.4478 3.80777" stroke="black" stroke-width="0.75" stroke-linecap="round" stroke-linejoin="round"/>
<path d="M13.9867 7.99932C13.9865 9.42872 13.4769 10.8113 12.5494 11.8988C11.6218 12.9864 10.337 13.7077 8.92552 13.9335C7.51406 14.1592 6.06836 13.8744 4.8479 13.1304C3.62743 12.3863 2.7121 11.2316 2.26619 9.87358C1.82027 8.51552 1.87297 7.04299 2.41483 5.72028C2.95668 4.39757 3.95221 3.31128 5.22275 2.65637C6.49328 2.00146 7.95563 1.82081 9.34735 2.14684C10.7391 2.47287 11.969 3.28424 12.8165 4.43532" stroke="black" stroke-width="0.75" stroke-linecap="round" stroke-linejoin="round"/>
<path d="M10.532 4.79514L12.9849 4.53736L12.7271 2.08447M11.1055 8.07869H7.97577V4.11558M7.97577 11.9802V11.1258M4.69844 8.07869H4.0191" stroke="black" stroke-width="0.75" stroke-linecap="round" stroke-linejoin="round"/>
<path d="M7.97577 8.90906C8.43441 8.90906 8.80621 8.53726 8.80621 8.07861C8.80621 7.61997 8.43441 7.24817 7.97577 7.24817C7.51713 7.24817 7.14532 7.61997 7.14532 8.07861C7.14532 8.53726 7.51713 8.90906 7.97577 8.90906Z" fill="black"/>
<path d="M10.8209 10.9815C11.0025 10.9815 11.1498 10.8343 11.1498 10.6526C11.1498 10.471 11.0025 10.3237 10.8209 10.3237C10.6393 10.3237 10.492 10.471 10.492 10.6526C10.492 10.8343 10.6393 10.9815 10.8209 10.9815Z" fill="black"/>
<path d="M5.13046 5.8216C5.3121 5.8216 5.45935 5.67435 5.45935 5.49271C5.45935 5.31107 5.3121 5.16382 5.13046 5.16382C4.94882 5.16382 4.80157 5.31107 4.80157 5.49271C4.80157 5.67435 4.94882 5.8216 5.13046 5.8216Z" fill="black"/>
<path d="M5.13046 10.9815C5.3121 10.9815 5.45935 10.8343 5.45935 10.6526C5.45935 10.471 5.3121 10.3237 5.13046 10.3237C4.94882 10.3237 4.80157 10.471 4.80157 10.6526C4.80157 10.8343 4.94882 10.9815 5.13046 10.9815Z" fill="black"/>
</svg>
